Coordinates
version=1
nRows=65
nColumns=12
inDegrees=yes

Units are S.I. units (second, meters, Newtons, ...)
Angles are in degrees

endheader
time	SC_y	SC_z	SC_x	AC_y	AC_z	AC_x	GH_y	GH_z	GH_yy	EL_x	PS_y
       0.0              -11.78          23.35          71.84          40.06         -17.63          9.881          88.71          17.33         -125.2          9.049          93.25
   0.02322              -11.78          23.35          71.83          40.05         -17.63          9.878          88.68          17.33         -125.2          9.066          93.26
   0.04643              -11.79          23.35          71.82          40.05         -17.63          9.875          88.65          17.33         -125.3          9.084          93.26
   0.06965               -11.8          23.35          71.81          40.05         -17.63          9.872          88.62          17.34         -125.3          9.104          93.27
   0.09287               -11.8          23.35          71.79          40.05         -17.63          9.868          88.58          17.34         -125.3          9.124          93.28
    0.1161              -11.81          23.35          71.78          40.05         -17.63          9.865          88.55          17.34         -125.3          9.146          93.29
    0.1393              -11.82          23.35          71.77          40.05         -17.63          9.861          88.51          17.35         -125.3           9.17           93.3
    0.1625              -11.82          23.35          71.76          40.05         -17.62          9.857          88.47          17.35         -125.3          9.195          93.31
    0.1857              -11.83          23.36          71.74          40.05         -17.62          9.852          88.42          17.36         -125.3          9.222          93.32
     0.209              -11.84          23.36          71.72          40.05         -17.62          9.848          88.38          17.36         -125.3          9.251          93.34
    0.2322              -11.85          23.36          71.71          40.05         -17.62          9.843          88.32          17.37         -125.3          9.282          93.35
    0.2554              -11.86          23.36          71.69          40.05         -17.62          9.837          88.27          17.37         -125.4          9.316          93.36
    0.2786              -11.87          23.36          71.67          40.05         -17.62          9.831          88.21          17.38         -125.4          9.352          93.38
    0.3018              -11.88          23.36          71.65          40.05         -17.61          9.825          88.15          17.39         -125.4          9.391           93.4
     0.325               -11.9          23.37          71.63          40.04         -17.61          9.818          88.08           17.4         -125.4          9.433          93.41
    0.3483              -11.91          23.37           71.6          40.04         -17.61          9.811           88.0           17.4         -125.4          9.479          93.43
    0.3715              -11.92          23.37          71.57          40.04         -17.61          9.802          87.92          17.41         -125.5          9.529          93.46
    0.3947              -11.94          23.37          71.54          40.04          -17.6          9.794          87.84          17.42         -125.5          9.583          93.48
    0.4179              -11.96          23.37          71.51          40.04          -17.6          9.784          87.74          17.43         -125.5          9.642           93.5
    0.4411              -11.98          23.38          71.48          40.04          -17.6          9.773          87.63          17.45         -125.5          9.707          93.53
    0.4643               -12.0          23.38          71.44          40.03         -17.59          9.762          87.52          17.46         -125.6          9.778          93.56
    0.4876              -12.02          23.38          71.39          40.03         -17.59          9.749          87.39          17.47         -125.6          9.856           93.6
    0.5108              -12.05          23.39          71.35          40.03         -17.59          9.735          87.25          17.49         -125.6          9.943          93.63
     0.534              -12.08          23.39          71.29          40.03         -17.58          9.719          87.09          17.51         -125.7          10.04          93.67
    0.5572              -12.11           23.4          71.24          40.02         -17.57          9.702          86.92          17.53         -125.7          10.15          93.72
    0.5804              -12.15           23.4          71.17          40.02         -17.57          9.683          86.73          17.55         -125.8          10.26          93.77
    0.6036              -12.19          23.41           71.1          40.02         -17.56          9.661          86.51          17.57         -125.9           10.4          93.83
    0.6269              -12.24          23.42          71.02          40.01         -17.55          9.636          86.26           17.6         -125.9          10.55          93.89
    0.6501              -12.29          23.42          70.92          40.01         -17.55          9.609          85.99          17.63         -126.0          10.72          93.96
    0.6733              -12.35          23.43          70.82           40.0         -17.54          9.577          85.68          17.67         -126.1          10.91          94.05
    0.6965              -12.41          23.44           70.7           40.0         -17.52          9.542          85.32          17.71         -126.2          11.13          94.14
    0.7197              -12.49          23.45          70.56          39.99         -17.51          9.501          84.91          17.75         -126.3          11.38          94.25
    0.7429              -12.58          23.47           70.4          39.98          -17.5          9.453          84.44          17.81         -126.4          11.67          94.37
    0.7662              -12.68          23.48          70.22          39.97         -17.48          9.398          83.89          17.87         -126.6          12.01          94.52
    0.7894               -12.8           23.5           70.0          39.96         -17.46          9.334          83.24          17.94         -126.8           12.4          94.69
    0.8126              -12.94          23.52          69.75          39.95         -17.43          9.258          82.48          18.03         -127.0          12.87          94.89
    0.8358              -13.11          23.54          69.45          39.93          -17.4          9.167          81.58          18.13         -127.2          13.42          95.13
     0.859              -13.32          23.57          69.08          39.91         -17.37          9.059           80.5          18.25         -127.5          14.09          95.41
    0.8822              -13.56          23.61          68.65          39.89         -17.33          8.928          79.19           18.4         -127.9          14.89          95.75
    0.9055              -13.86          23.65          68.11          39.86         -17.28          8.768           77.6          18.58         -128.3          15.87          96.18
    0.9287              -14.23          23.71          67.45          39.83         -17.21          8.571          75.62           18.8         -128.9          17.08          96.69
    0.9519              -14.69          23.78          66.62          39.78         -17.13          8.325          73.17          19.08         -129.6          18.59          97.34
    0.9751              -15.27          23.86          65.59          39.73         -17.03          8.015          70.07          19.43         -130.4          20.49          98.16
    0.9983              -16.01          23.97          64.26          39.66         -16.91          7.621          66.13          19.87         -131.5          22.91          99.19
     1.022              -16.95          24.11          62.57          39.57         -16.75          7.116          61.09          20.44         -132.9          26.01          100.5
     1.045              -18.16          24.28          60.41          39.46         -16.54          6.469          54.63          21.17         -134.7          29.98          102.2
     1.068              -19.71          24.51          57.64          39.31         -16.27          5.642          46.37           22.1         -137.0          35.05          104.4
     1.091              -21.65           24.8          54.15          39.13         -15.94          4.602          35.98          23.27         -139.9          41.43          107.1
     1.114              -24.02          25.14          49.91          38.91         -15.53          3.335          23.33           24.7         -143.4           49.2          110.5
     1.138              -26.77          25.55          44.99          38.65         -15.06          1.866          8.656          26.36         -147.5          58.21          114.3
     1.161              -29.75          25.98          39.66          38.37         -14.55         0.2759         -7.229          28.15         -152.0          67.96          118.5
     1.184              -32.72          26.42          34.33          38.09         -14.04         -1.314         -23.11          29.94         -156.4          77.72          122.7
     1.207              -35.47          26.82          29.41          37.84         -13.57         -2.783         -37.78           31.6         -160.5          86.73          126.6
      1.23              -37.84          27.17          25.17          37.62         -13.17          -4.05         -50.44          33.03         -164.0           94.5          129.9
     1.254              -39.79          27.45          21.68          37.43         -12.84          -5.09         -60.83           34.2         -166.9          100.9          132.6
     1.277              -41.33          27.68          18.91          37.29         -12.57         -5.917         -69.09          35.13         -169.2          105.9          134.8
       1.3              -42.54          27.86          16.74          37.18         -12.36         -6.565         -75.55          35.86         -171.0          109.9          136.5
     1.323              -43.49           28.0          15.05          37.09          -12.2         -7.069         -80.59          36.43         -172.4          113.0          137.8
     1.347              -44.23          28.11          13.73          37.02         -12.07         -7.463         -84.53          36.87         -173.5          115.4          138.9
      1.37              -44.81          28.19          12.69          36.96         -11.98         -7.773         -87.62          37.22         -174.3          117.3          139.7
     1.393              -45.27          28.26          11.87          36.92          -11.9         -8.019         -90.08           37.5         -175.0          118.8          140.3
     1.416              -45.63          28.31          11.21          36.89         -11.83         -8.217         -92.05          37.72         -175.6          120.1          140.9
     1.439              -45.93          28.36          10.67          36.86         -11.78         -8.377         -93.65           37.9         -176.0          121.0          141.3
     1.463              -46.18          28.39          10.23          36.83         -11.74         -8.508         -94.96          38.05         -176.4          121.8          141.6
     1.486              -46.38          28.42          9.872          36.82         -11.71         -8.616         -96.04          38.17         -176.7          122.5          141.9
